<svg width="57" height="51" viewBox="0 0 57 51" fill="none" xmlns="http://www.w3.org/2000/svg">
<rect x="0.75" y="1.6593" width="55.5" height="48.5" stroke="#3C6068" stroke-width="1.5"/>
<path d="M40.4586 20.5797V20.5818V31.2368C40.4586 33.4019 39.8161 35.04 38.7201 36.136C37.624 37.232 35.986 37.8744 33.821 37.8744H23.1786C21.0135 37.8744 19.3757 37.232 18.2798 36.1347C17.1837 35.0374 16.541 33.3962 16.541 31.2242V20.5818C16.541 18.4166 17.1834 16.7786 18.2794 15.6826C19.3754 14.5866 21.0134 13.9442 23.1786 13.9442H33.8336C35.9987 13.9442 37.6364 14.5867 38.7307 15.6823C39.8249 16.7778 40.4645 18.4151 40.4586 20.5797ZM36.7252 19.6882C36.7288 19.6795 36.7323 19.6706 36.7356 19.6618C36.8254 19.4385 36.8845 19.1847 36.8845 18.916C36.8845 18.6404 36.8224 18.3805 36.7287 18.1531C36.6234 17.8843 36.4777 17.6829 36.3229 17.5111C36.2953 17.4804 36.2652 17.4521 36.2329 17.4264C36.2286 17.423 36.2215 17.417 36.2078 17.4052C36.2052 17.403 36.2014 17.3997 36.1969 17.3958C36.1853 17.3858 36.1692 17.3718 36.1565 17.361C36.1223 17.3318 36.058 17.2779 35.9779 17.2278C35.8718 17.1585 35.7574 17.0985 35.6347 17.0527C35.5142 16.9971 35.3842 16.9549 35.2383 16.9315C34.5788 16.7973 33.8891 17.0236 33.4299 17.4828C33.4207 17.492 33.4118 17.5014 33.4031 17.5111C33.2482 17.683 33.1025 17.8844 32.9973 18.1531C32.9036 18.3805 32.8414 18.6404 32.8414 18.916C32.8414 19.1953 32.9053 19.4586 33.0012 19.6882C33.0983 19.9208 33.2334 20.1325 33.4031 20.3209C33.4118 20.3305 33.4207 20.34 33.4299 20.3492C33.8176 20.7369 34.3284 20.9377 34.8632 20.9377C35.1425 20.9377 35.4058 20.8738 35.6354 20.778C35.868 20.6809 36.0797 20.5458 36.2681 20.3761C36.2874 20.3587 36.3058 20.3402 36.3233 20.3209C36.493 20.1325 36.6281 19.9208 36.7252 19.6882ZM22.8226 25.9095C22.8226 29.0446 25.3708 31.5928 28.5059 31.5928C31.641 31.5928 34.1892 29.0446 34.1892 25.9095C34.1892 22.7744 31.641 20.2262 28.5059 20.2262C25.3708 20.2262 22.8226 22.7744 22.8226 25.9095Z" stroke="#3C6068" stroke-width="1.5" stroke-linejoin="round"/>
</svg>
