<svg width="27" height="27" viewBox="0 0 27 27" fill="none" xmlns="http://www.w3.org/2000/svg">
<path d="M25.4587 8.30666V8.3087V18.9638C25.4587 21.1289 24.8162 22.7669 23.7202 23.8629C22.6241 24.9589 20.9861 25.6013 18.8212 25.6013H8.17869C6.01358 25.6013 4.37578 24.9589 3.27988 23.8617C2.18387 22.7643 1.54114 21.1231 1.54114 18.9512V8.3087C1.54114 6.14357 2.18355 4.50555 3.27955 3.40955C4.37555 2.31355 6.01357 1.67114 8.17869 1.67114H18.8338C20.9988 1.67114 22.6366 2.31361 23.7309 3.40924C24.825 4.5047 25.4646 6.14203 25.4587 8.30666ZM21.7253 7.41515C21.729 7.40639 21.7324 7.39757 21.7358 7.38872C21.8256 7.16543 21.8847 6.91159 21.8847 6.6429C21.8847 6.36735 21.8225 6.10742 21.7288 5.88003C21.6236 5.61128 21.4779 5.40987 21.323 5.23801C21.2954 5.20736 21.2653 5.17904 21.233 5.15333C21.2287 5.14988 21.2216 5.14396 21.2079 5.13215C21.2053 5.12991 21.2015 5.12662 21.197 5.12271C21.1855 5.11273 21.1693 5.0987 21.1566 5.08792C21.1224 5.05877 21.0582 5.0048 20.978 4.95475C20.872 4.8854 20.7576 4.82547 20.6348 4.77967C20.5143 4.72403 20.3843 4.68183 20.2385 4.65843C19.579 4.52421 18.8892 4.75057 18.4301 5.20968C18.4209 5.21889 18.4119 5.22833 18.4032 5.23801C18.2483 5.40988 18.1026 5.61129 17.9974 5.88005C17.9037 6.10744 17.8415 6.36736 17.8415 6.6429C17.8415 6.92225 17.9054 7.18555 18.0013 7.41515C18.0984 7.64777 18.2335 7.85944 18.4032 8.0478C18.4119 8.05747 18.4209 8.06692 18.4301 8.07613C18.8177 8.46379 19.3285 8.66466 19.8633 8.66466C20.1426 8.66466 20.4059 8.60078 20.6355 8.50492C20.8682 8.4078 21.0798 8.27271 21.2682 8.10302C21.2875 8.08558 21.306 8.06715 21.3234 8.0478C21.4931 7.85944 21.6282 7.64777 21.7253 7.41515ZM7.82273 13.6364C7.82273 16.7715 10.3709 19.3197 13.506 19.3197C16.6411 19.3197 19.1893 16.7715 19.1893 13.6364C19.1893 10.5013 16.6411 7.95312 13.506 7.95312C10.3709 7.95312 7.82273 10.5013 7.82273 13.6364Z" stroke="#3C6068" stroke-width="1.5" stroke-linejoin="round"/>
</svg>
