<svg width="57" height="51" viewBox="0 0 57 51" fill="none" xmlns="http://www.w3.org/2000/svg">
<path d="M35.5695 26.4527L40.4648 22.1847V30.7202L35.5695 26.4527Z" stroke="#3C6068" stroke-width="1.5"/>
<path d="M19.7354 13.9445H37.2649C38.9586 13.9445 40.3452 15.2605 40.4577 16.9257L29.4042 26.5621C29.1434 26.7891 28.8262 26.9004 28.5001 26.9011C28.175 26.9004 27.8581 26.7895 27.5958 26.5619C27.5957 26.5618 27.5956 26.5616 27.5954 26.5615L16.5425 16.9257C16.6551 15.2605 18.0416 13.9445 19.7354 13.9445Z" stroke="#3C6068" stroke-width="1.5"/>
<path d="M28.5001 30.8703C29.658 30.8708 30.8244 30.4923 31.7877 29.7393H31.7998L32.0116 29.5545L32.5496 29.0854L40.2563 35.804C39.7994 37.0145 38.6325 37.8744 37.2646 37.8744H19.7351C18.3679 37.8744 17.2004 37.0143 16.7436 35.804L24.4503 29.0854L24.9884 29.5545L24.9884 29.5546C25.9921 30.4297 27.2498 30.8713 28.5001 30.8703ZM28.5001 30.8703C28.5002 30.8703 28.5003 30.8703 28.5005 30.8703L28.4998 30.1203L28.4994 30.8703C28.4996 30.8703 28.4998 30.8703 28.5001 30.8703Z" stroke="#3C6068" stroke-width="1.5"/>
<path d="M16.5352 22.1846L21.4305 26.4521L16.5352 30.7201V22.1846Z" stroke="#3C6068" stroke-width="1.5"/>
<rect x="0.75" y="1.6593" width="55.5" height="48.5" stroke="#3C6068" stroke-width="1.5"/>
</svg>
