<svg width="57" height="51" viewBox="0 0 57 51" fill="none" xmlns="http://www.w3.org/2000/svg">
<path d="M23.1401 29.5307L23.1401 29.5307C24.82 32.121 27.1743 34.4536 28.9551 35.7925L28.9552 35.7925C30.0709 36.6315 31.4204 37.3127 32.6751 37.6487C33.964 37.9937 34.9807 37.9322 35.5848 37.5403L35.5848 37.5403C35.9404 37.3097 36.4357 36.8362 36.8712 36.3498C37.0659 36.1324 37.2358 35.9269 37.3621 35.7604L37.2139 35.532L36.6813 34.7107L36.6812 34.7106L34.2418 30.9495C34.1821 30.9541 34.1076 30.9635 34.0192 30.9798C33.6819 31.0419 33.3112 31.1721 33.093 31.2957L33.093 31.2958C32.8138 31.4539 32.4921 31.7864 32.2115 32.1427C32.0791 32.3106 31.9695 32.4662 31.8932 32.5794C31.8552 32.6358 31.8259 32.681 31.8067 32.7112L31.7857 32.7446L31.7813 32.7518L31.7811 32.7522L31.7809 32.7524L31.7809 32.7525L31.7807 32.7528L31.7806 32.7529L31.6814 32.9168L31.5147 33.013C31.0051 33.3073 30.5177 33.2878 30.0617 33.1458C29.783 33.059 29.4567 32.9032 29.1312 32.7479C29.0195 32.6946 28.9079 32.6413 28.7984 32.591C28.0469 32.2452 27.3176 31.576 26.6706 30.8555C26.0103 30.1203 25.376 29.2629 24.8244 28.4646L24.8119 28.4465L24.8004 28.4277C24.2965 27.5985 23.7723 26.6696 23.3703 25.7669C22.9764 24.8824 22.6628 23.9436 22.6535 23.1165L23.1401 29.5307ZM23.1401 29.5307C21.3525 26.7744 20.2911 23.8428 19.7941 21.6675C19.4831 20.3065 19.4114 18.7965 19.6163 17.5139M23.1401 29.5307L19.6163 17.5139M23.7226 20.3272L23.7229 20.3272L23.7233 20.3271L23.7317 20.326L23.7707 20.3204C23.8061 20.3152 23.8593 20.3069 23.9263 20.2953C24.0608 20.2718 24.2476 20.2351 24.4549 20.1828C24.8946 20.0719 25.3293 19.9138 25.5877 19.7234C25.7896 19.5745 26.0596 19.2892 26.2539 19.0066C26.3048 18.9325 26.3438 18.8683 26.3723 18.8157L23.9333 15.0552C23.9333 15.0551 23.9332 15.0551 23.9332 15.055C23.8481 14.9241 23.6132 14.562 23.3998 14.233L23.2517 14.0045C23.0482 14.052 22.7912 14.1233 22.5134 14.2124C21.8918 14.4117 21.2574 14.6707 20.9017 14.9013L23.7226 20.3272ZM23.7226 20.3272L23.7225 20.3272M23.7226 20.3272L23.7225 20.3272M23.7225 20.3272L23.7222 20.3272M23.7225 20.3272L23.7222 20.3272M23.7222 20.3272L23.7221 20.3273M23.7222 20.3272L23.7221 20.3273M23.7221 20.3273L23.5321 20.3511M23.7221 20.3273L23.5321 20.3511M23.5321 20.3511L23.3764 20.4637M23.5321 20.3511L23.3764 20.4637M23.3764 20.4637C22.8994 20.8089 22.7183 21.2621 22.662 21.7366M23.3764 20.4637L22.662 21.7366M19.6163 17.5139C19.8267 16.1965 20.2975 15.2933 20.9016 14.9013L19.6163 17.5139ZM22.662 21.7366C22.6276 22.0266 22.6368 22.3884 22.6459 22.749M22.662 21.7366L22.6459 22.749M22.6459 22.749C22.649 22.8726 22.6522 22.996 22.6535 23.1163L22.6459 22.749ZM34.383 30.949C34.383 30.949 34.3825 30.9489 34.3815 30.9487L34.383 30.949ZM37.5487 35.4902C37.5509 35.4853 37.5524 35.4827 37.5525 35.4825C37.5527 35.4824 37.5515 35.4849 37.5487 35.4902ZM23.5832 13.944C23.583 13.9441 23.58 13.9443 23.5746 13.9444C23.5805 13.9439 23.5833 13.9439 23.5832 13.944ZM26.4304 18.687C26.4304 18.687 26.4303 18.6874 26.43 18.6884L26.4304 18.687Z" stroke="#3C6068" stroke-width="1.5"/>
<rect x="0.75" y="1.6593" width="55.5" height="48.5" stroke="#3C6068" stroke-width="1.5"/>
</svg>
